<?xml version="1.0" encoding="utf-8" standalone="no"?>
<!DOCTYPE svg PUBLIC "-//W3C//DTD SVG 1.1//EN"
  "http://www.w3.org/Graphics/SVG/1.1/DTD/svg11.dtd">
<svg xmlns:xlink="http://www.w3.org/1999/xlink" width="260.6pt" height="188.544pt" viewBox="0 0 260.6 188.544" xmlns="http://www.w3.org/2000/svg" version="1.1">
 <metadata>
  <rdf:RDF xmlns:dc="http://purl.org/dc/elements/1.1/" xmlns:cc="http://creativecommons.org/ns#" xmlns:rdf="http://www.w3.org/1999/02/22-rdf-syntax-ns#">
   <cc:Work>
    <dc:type rdf:resource="http://purl.org/dc/dcmitype/StillImage"/>
    <dc:date>2025-09-15T21:20:47.845057</dc:date>
    <dc:format>image/svg+xml</dc:format>
    <dc:creator>
     <cc:Agent>
      <dc:title>Matplotlib v3.10.6, https://matplotlib.org/</dc:title>
     </cc:Agent>
    </dc:creator>
   </cc:Work>
  </rdf:RDF>
 </metadata>
 <defs>
  <style type="text/css">*{stroke-linejoin: round; stroke-linecap: butt}</style>
 </defs>
 <g id="figure_1">
  <g id="patch_1">
   <path d="M 0 188.544 
L 260.6 188.544 
L 260.6 0 
L 0 0 
z
" style="fill: #0a0a0a"/>
  </g>
  <g id="axes_1">
   <g id="patch_2">
    <path d="M 30.2 130.08 
L 253.4 130.08 
L 253.4 19.2 
L 30.2 19.2 
z
" style="fill: #0a0a0a"/>
   </g>
   <g id="matplotlib.axis_1">
    <g id="xtick_1">
     <g id="line2d_1">
      <defs>
       <path id="m0425fff9e6" d="M 0 0 
L 0 3.5 
" style="stroke: #ffffff; stroke-width: 0.8"/>
      </defs>
      <g>
       <use xlink:href="#m0425fff9e6" x="40.345455" y="130.08" style="fill: #ffffff; stroke: #ffffff; stroke-width: 0.8"/>
      </g>
     </g>
     <g id="text_1">
      <!-- 0.0 -->
      <g style="fill: #ffffff" transform="translate(34.345455 142.08) scale(0.08 -0.08)">
       <defs>
        <path id="04b03-30" d="M 2400 806 
L 2400 3194 
L 800 3194 
L 800 806 
L 2400 806 
z
M 800 800 
L 0 800 
L 0 3200 
L 800 3200 
L 800 4000 
L 2400 4000 
L 2400 3200 
L 3200 3200 
L 3200 800 
L 2400 800 
L 2400 0 
L 800 0 
L 800 800 
z
" transform="scale(0.015625)"/>
        <path id="04b03-2e" d="M 0 0 
L 800 0 
L 800 800 
L 0 800 
L 0 0 
z
" transform="scale(0.015625)"/>
       </defs>
       <use xlink:href="#04b03-30"/>
       <use xlink:href="#04b03-2e" transform="translate(62.499985 0)"/>
       <use xlink:href="#04b03-30" transform="translate(87.499969 0)"/>
      </g>
     </g>
    </g>
    <g id="xtick_2">
     <g id="line2d_2">
      <g>
       <use xlink:href="#m0425fff9e6" x="67.044019" y="130.08" style="fill: #ffffff; stroke: #ffffff; stroke-width: 0.8"/>
      </g>
     </g>
     <g id="text_2">
      <!-- 2.5 -->
      <g style="fill: #ffffff" transform="translate(61.044019 142.08) scale(0.08 -0.08)">
       <defs>
        <path id="04b03-32" d="M 0 4000 
L 0 3200 
L 2400 3200 
L 2400 4000 
L 0 4000 
z
M 2400 2400 
L 3200 2400 
L 3200 3200 
L 2400 3200 
L 2400 2400 
z
M 800 2400 
L 800 1600 
L 2400 1600 
L 2400 2400 
L 800 2400 
z
M 0 0 
L 3200 0 
L 3200 800 
L 800 800 
L 800 1600 
L 0 1600 
L 0 0 
z
" transform="scale(0.015625)"/>
        <path id="04b03-35" d="M 800 2400 
L 800 3200 
L 3200 3200 
L 3200 4000 
L 0 4000 
L 0 1600 
L 2400 1600 
L 2400 2400 
L 800 2400 
z
M 3200 1600 
L 2400 1600 
L 2400 800 
L 3200 800 
L 3200 1600 
z
M 2400 0 
L 2400 800 
L 0 800 
L 0 0 
L 2400 0 
z
" transform="scale(0.015625)"/>
       </defs>
       <use xlink:href="#04b03-32"/>
       <use xlink:href="#04b03-2e" transform="translate(62.499985 0)"/>
       <use xlink:href="#04b03-35" transform="translate(87.499969 0)"/>
      </g>
     </g>
    </g>
    <g id="xtick_3">
     <g id="line2d_3">
      <g>
       <use xlink:href="#m0425fff9e6" x="93.742584" y="130.08" style="fill: #ffffff; stroke: #ffffff; stroke-width: 0.8"/>
      </g>
     </g>
     <g id="text_3">
      <!-- 5.0 -->
      <g style="fill: #ffffff" transform="translate(87.742584 142.08) scale(0.08 -0.08)">
       <use xlink:href="#04b03-35"/>
       <use xlink:href="#04b03-2e" transform="translate(62.499985 0)"/>
       <use xlink:href="#04b03-30" transform="translate(87.499969 0)"/>
      </g>
     </g>
    </g>
    <g id="xtick_4">
     <g id="line2d_4">
      <g>
       <use xlink:href="#m0425fff9e6" x="120.441148" y="130.08" style="fill: #ffffff; stroke: #ffffff; stroke-width: 0.8"/>
      </g>
     </g>
     <g id="text_4">
      <!-- 7.5 -->
      <g style="fill: #ffffff" transform="translate(114.441148 142.08) scale(0.08 -0.08)">
       <defs>
        <path id="04b03-37" d="M 0 4000 
L 0 3200 
L 2400 3200 
L 2400 2400 
L 3200 2400 
L 3200 4000 
L 0 4000 
z
M 800 0 
L 1600 0 
L 1600 1600 
L 800 1600 
L 800 0 
z
M 1600 1600 
L 2400 1600 
L 2400 2400 
L 1600 2400 
L 1600 1600 
z
" transform="scale(0.015625)"/>
       </defs>
       <use xlink:href="#04b03-37"/>
       <use xlink:href="#04b03-2e" transform="translate(62.499985 0)"/>
       <use xlink:href="#04b03-35" transform="translate(87.499969 0)"/>
      </g>
     </g>
    </g>
    <g id="xtick_5">
     <g id="line2d_5">
      <g>
       <use xlink:href="#m0425fff9e6" x="147.139713" y="130.08" style="fill: #ffffff; stroke: #ffffff; stroke-width: 0.8"/>
      </g>
     </g>
     <g id="text_5">
      <!-- 10.0 -->
      <g style="fill: #ffffff" transform="translate(139.639713 142.08) scale(0.08 -0.08)">
       <defs>
        <path id="04b03-31" d="M 800 0 
L 1600 0 
L 1600 4000 
L 0 4000 
L 0 3200 
L 800 3200 
L 800 0 
z
" transform="scale(0.015625)"/>
       </defs>
       <use xlink:href="#04b03-31"/>
       <use xlink:href="#04b03-30" transform="translate(37.499985 0)"/>
       <use xlink:href="#04b03-2e" transform="translate(99.999969 0)"/>
       <use xlink:href="#04b03-30" transform="translate(124.999954 0)"/>
      </g>
     </g>
    </g>
    <g id="xtick_6">
     <g id="line2d_6">
      <g>
       <use xlink:href="#m0425fff9e6" x="173.838278" y="130.08" style="fill: #ffffff; stroke: #ffffff; stroke-width: 0.8"/>
      </g>
     </g>
     <g id="text_6">
      <!-- 12.5 -->
      <g style="fill: #ffffff" transform="translate(166.338278 142.08) scale(0.08 -0.08)">
       <use xlink:href="#04b03-31"/>
       <use xlink:href="#04b03-32" transform="translate(37.499985 0)"/>
       <use xlink:href="#04b03-2e" transform="translate(99.999969 0)"/>
       <use xlink:href="#04b03-35" transform="translate(124.999954 0)"/>
      </g>
     </g>
    </g>
    <g id="xtick_7">
     <g id="line2d_7">
      <g>
       <use xlink:href="#m0425fff9e6" x="200.536842" y="130.08" style="fill: #ffffff; stroke: #ffffff; stroke-width: 0.8"/>
      </g>
     </g>
     <g id="text_7">
      <!-- 15.0 -->
      <g style="fill: #ffffff" transform="translate(193.036842 142.08) scale(0.08 -0.08)">
       <use xlink:href="#04b03-31"/>
       <use xlink:href="#04b03-35" transform="translate(37.499985 0)"/>
       <use xlink:href="#04b03-2e" transform="translate(99.999969 0)"/>
       <use xlink:href="#04b03-30" transform="translate(124.999954 0)"/>
      </g>
     </g>
    </g>
    <g id="xtick_8">
     <g id="line2d_8">
      <g>
       <use xlink:href="#m0425fff9e6" x="227.235407" y="130.08" style="fill: #ffffff; stroke: #ffffff; stroke-width: 0.8"/>
      </g>
     </g>
     <g id="text_8">
      <!-- 17.5 -->
      <g style="fill: #ffffff" transform="translate(219.735407 142.08) scale(0.08 -0.08)">
       <use xlink:href="#04b03-31"/>
       <use xlink:href="#04b03-37" transform="translate(37.499985 0)"/>
       <use xlink:href="#04b03-2e" transform="translate(99.999969 0)"/>
       <use xlink:href="#04b03-35" transform="translate(124.999954 0)"/>
      </g>
     </g>
    </g>
    <g id="text_9">
     <!-- Time [a.u.] -->
     <g style="fill: #ffffff" transform="translate(121.3 153.08) scale(0.08 -0.08)">
      <defs>
       <path id="04b03-54" d="M 800 0 
L 1600 0 
L 1600 3200 
L 2400 3200 
L 2400 4000 
L 0 4000 
L 0 3200 
L 800 3200 
L 800 0 
z
" transform="scale(0.015625)"/>
       <path id="04b03-69" d="M 800 4000 
L 0 4000 
L 0 3200 
L 800 3200 
L 800 4000 
z
M 800 2400 
L 0 2400 
L 0 0 
L 800 0 
L 800 2400 
z
" transform="scale(0.015625)"/>
       <path id="04b03-6d" d="M 0 3200 
L 0 0 
L 800 0 
L 800 2400 
L 1600 2400 
L 1600 0 
L 2400 0 
L 2400 2400 
L 3200 2400 
L 3200 3200 
L 0 3200 
z
M 3200 0 
L 4000 0 
L 4000 2400 
L 3200 2400 
L 3200 0 
z
" transform="scale(0.015625)"/>
       <path id="04b03-65" d="M 1600 1606 
L 1600 2394 
L 800 2394 
L 800 1606 
L 1600 1606 
z
M 800 0 
L 800 800 
L 0 800 
L 0 2400 
L 800 2400 
L 800 3200 
L 2400 3200 
L 2400 2400 
L 3200 2400 
L 3200 1600 
L 1600 1600 
L 1600 800 
L 2400 800 
L 2400 0 
L 800 0 
z
" transform="scale(0.015625)"/>
       <path id="04b03-20" transform="scale(0.015625)"/>
       <path id="04b03-5b" d="M 0 4000 
L 0 0 
L 1600 0 
L 1600 800 
L 800 800 
L 800 3200 
L 1600 3200 
L 1600 4000 
L 0 4000 
z
" transform="scale(0.015625)"/>
       <path id="04b03-61" d="M 800 806 
L 2400 806 
L 2400 2394 
L 800 2394 
L 800 806 
z
M 800 2400 
L 800 3200 
L 3200 3200 
L 3200 0 
L 800 0 
L 800 800 
L 0 800 
L 0 2400 
L 800 2400 
z
" transform="scale(0.015625)"/>
       <path id="04b03-75" d="M 2400 800 
L 800 800 
L 800 0 
L 3200 0 
L 3200 3200 
L 2400 3200 
L 2400 800 
z
M 800 3200 
L 0 3200 
L 0 800 
L 800 800 
L 800 3200 
z
" transform="scale(0.015625)"/>
       <path id="04b03-5d" d="M 1600 0 
L 1600 4000 
L 0 4000 
L 0 3200 
L 800 3200 
L 800 800 
L 0 800 
L 0 0 
L 1600 0 
z
" transform="scale(0.015625)"/>
      </defs>
      <use xlink:href="#04b03-54"/>
      <use xlink:href="#04b03-69" transform="translate(49.999985 0)"/>
      <use xlink:href="#04b03-6d" transform="translate(74.999969 0)"/>
      <use xlink:href="#04b03-65" transform="translate(149.999954 0)"/>
      <use xlink:href="#04b03-20" transform="translate(212.499939 0)"/>
      <use xlink:href="#04b03-5b" transform="translate(262.499924 0)"/>
      <use xlink:href="#04b03-61" transform="translate(299.999908 0)"/>
      <use xlink:href="#04b03-2e" transform="translate(362.499893 0)"/>
      <use xlink:href="#04b03-75" transform="translate(387.499878 0)"/>
      <use xlink:href="#04b03-2e" transform="translate(449.999863 0)"/>
      <use xlink:href="#04b03-5d" transform="translate(474.999847 0)"/>
     </g>
    </g>
   </g>
   <g id="matplotlib.axis_2">
    <g id="ytick_1">
     <g id="line2d_9">
      <defs>
       <path id="meacba0f11e" d="M 0 0 
L -3.5 0 
" style="stroke: #ffffff; stroke-width: 0.8"/>
      </defs>
      <g>
       <use xlink:href="#meacba0f11e" x="30.2" y="130.08" style="fill: #ffffff; stroke: #ffffff; stroke-width: 0.8"/>
      </g>
     </g>
     <g id="text_10">
      <!-- 0 -->
      <g style="fill: #ffffff" transform="translate(18.2 132.58) scale(0.08 -0.08)">
       <use xlink:href="#04b03-30"/>
      </g>
     </g>
    </g>
    <g id="ytick_2">
     <g id="line2d_10">
      <g>
       <use xlink:href="#meacba0f11e" x="30.2" y="29.28" style="fill: #ffffff; stroke: #ffffff; stroke-width: 0.8"/>
      </g>
     </g>
     <g id="text_11">
      <!-- 1 -->
      <g style="fill: #ffffff" transform="translate(20.2 31.78) scale(0.08 -0.08)">
       <use xlink:href="#04b03-31"/>
      </g>
     </g>
    </g>
    <g id="text_12">
     <!-- Shuttering [a.u.] -->
     <g style="fill: #ffffff" transform="translate(12.2 108.64) rotate(-90) scale(0.08 -0.08)">
      <defs>
       <path id="04b03-53" d="M 0 2400 
L 800 2400 
L 800 3200 
L 0 3200 
L 0 2400 
z
M 800 4000 
L 800 3200 
L 3200 3200 
L 3200 4000 
L 800 4000 
z
M 2400 1600 
L 2400 2400 
L 800 2400 
L 800 1600 
L 2400 1600 
z
M 3200 800 
L 3200 1600 
L 2400 1600 
L 2400 800 
L 3200 800 
z
M 0 800 
L 0 0 
L 2400 0 
L 2400 800 
L 0 800 
z
" transform="scale(0.015625)"/>
       <path id="04b03-68" d="M 800 3200 
L 800 4000 
L 0 4000 
L 0 0 
L 800 0 
L 800 2400 
L 2400 2400 
L 2400 3200 
L 800 3200 
z
M 2400 0 
L 3200 0 
L 3200 2400 
L 2400 2400 
L 2400 0 
z
" transform="scale(0.015625)"/>
       <path id="04b03-74" d="M 1600 4000 
L 800 4000 
L 800 3200 
L 0 3200 
L 0 2400 
L 800 2400 
L 800 800 
L 1600 800 
L 1600 2400 
L 2400 2400 
L 2400 3200 
L 1600 3200 
L 1600 4000 
z
M 2400 0 
L 2400 800 
L 1600 800 
L 1600 0 
L 2400 0 
z
" transform="scale(0.015625)"/>
       <path id="04b03-72" d="M 2400 3200 
L 1600 3200 
L 1600 2400 
L 2400 2400 
L 2400 3200 
z
M 800 1600 
L 1600 1600 
L 1600 2400 
L 800 2400 
L 800 3200 
L 0 3200 
L 0 0 
L 800 0 
L 800 1600 
z
" transform="scale(0.015625)"/>
       <path id="04b03-6e" d="M 2400 0 
L 3200 0 
L 3200 2400 
L 2400 2400 
L 2400 0 
z
M 800 2400 
L 2400 2400 
L 2400 3200 
L 0 3200 
L 0 0 
L 800 0 
L 800 2400 
z
" transform="scale(0.015625)"/>
       <path id="04b03-67" d="M 800 806 
L 2400 806 
L 2400 2394 
L 800 2394 
L 800 806 
z
M 800 -800 
L 2400 -800 
L 2400 0 
L 800 0 
L 800 800 
L 0 800 
L 0 2400 
L 800 2400 
L 800 3200 
L 3200 3200 
L 3200 -800 
L 2400 -800 
L 2400 -1600 
L 800 -1600 
L 800 -800 
z
" transform="scale(0.015625)"/>
      </defs>
      <use xlink:href="#04b03-53"/>
      <use xlink:href="#04b03-68" transform="translate(62.499985 0)"/>
      <use xlink:href="#04b03-75" transform="translate(124.999969 0)"/>
      <use xlink:href="#04b03-74" transform="translate(187.499954 0)"/>
      <use xlink:href="#04b03-74" transform="translate(237.499939 0)"/>
      <use xlink:href="#04b03-65" transform="translate(287.499924 0)"/>
      <use xlink:href="#04b03-72" transform="translate(349.999908 0)"/>
      <use xlink:href="#04b03-69" transform="translate(399.999893 0)"/>
      <use xlink:href="#04b03-6e" transform="translate(424.999878 0)"/>
      <use xlink:href="#04b03-67" transform="translate(487.499863 0)"/>
      <use xlink:href="#04b03-20" transform="translate(549.999847 0)"/>
      <use xlink:href="#04b03-5b" transform="translate(599.999832 0)"/>
      <use xlink:href="#04b03-61" transform="translate(637.499817 0)"/>
      <use xlink:href="#04b03-2e" transform="translate(699.999802 0)"/>
      <use xlink:href="#04b03-75" transform="translate(724.999786 0)"/>
      <use xlink:href="#04b03-2e" transform="translate(787.499771 0)"/>
      <use xlink:href="#04b03-5d" transform="translate(812.499756 0)"/>
     </g>
    </g>
   </g>
   <g id="LineCollection_1">
    <path d="M 40.345455 130.08 
L 40.345455 29.28 
" clip-path="url(#p465edbe336)" style="fill: none; stroke-dasharray: 1.5,2.475; stroke-dashoffset: 0; stroke: #bf00bf; stroke-width: 1.5"/>
    <path clip-path="url(#p465edbe336)" style="fill: none; stroke-dasharray: 1.5,2.475; stroke-dashoffset: 0; stroke: #bf00bf; stroke-width: 1.5"/>
    <path d="M 61.704306 130.08 
L 61.704306 29.28 
" clip-path="url(#p465edbe336)" style="fill: none; stroke-dasharray: 1.5,2.475; stroke-dashoffset: 0; stroke: #bf00bf; stroke-width: 1.5"/>
    <path clip-path="url(#p465edbe336)" style="fill: none; stroke-dasharray: 1.5,2.475; stroke-dashoffset: 0; stroke: #bf00bf; stroke-width: 1.5"/>
    <path d="M 83.063158 130.08 
L 83.063158 29.28 
" clip-path="url(#p465edbe336)" style="fill: none; stroke-dasharray: 1.5,2.475; stroke-dashoffset: 0; stroke: #bf00bf; stroke-width: 1.5"/>
    <path clip-path="url(#p465edbe336)" style="fill: none; stroke-dasharray: 1.5,2.475; stroke-dashoffset: 0; stroke: #bf00bf; stroke-width: 1.5"/>
    <path d="M 104.42201 130.08 
L 104.42201 29.28 
" clip-path="url(#p465edbe336)" style="fill: none; stroke-dasharray: 1.5,2.475; stroke-dashoffset: 0; stroke: #bf00bf; stroke-width: 1.5"/>
    <path clip-path="url(#p465edbe336)" style="fill: none; stroke-dasharray: 1.5,2.475; stroke-dashoffset: 0; stroke: #bf00bf; stroke-width: 1.5"/>
    <path d="M 125.780861 130.08 
L 125.780861 29.28 
" clip-path="url(#p465edbe336)" style="fill: none; stroke-dasharray: 1.5,2.475; stroke-dashoffset: 0; stroke: #bf00bf; stroke-width: 1.5"/>
    <path clip-path="url(#p465edbe336)" style="fill: none; stroke-dasharray: 1.5,2.475; stroke-dashoffset: 0; stroke: #bf00bf; stroke-width: 1.5"/>
    <path d="M 147.139713 130.08 
L 147.139713 29.28 
" clip-path="url(#p465edbe336)" style="fill: none; stroke-dasharray: 1.5,2.475; stroke-dashoffset: 0; stroke: #bf00bf; stroke-width: 1.5"/>
    <path clip-path="url(#p465edbe336)" style="fill: none; stroke-dasharray: 1.5,2.475; stroke-dashoffset: 0; stroke: #bf00bf; stroke-width: 1.5"/>
    <path d="M 168.498565 130.08 
L 168.498565 29.28 
" clip-path="url(#p465edbe336)" style="fill: none; stroke-dasharray: 1.5,2.475; stroke-dashoffset: 0; stroke: #bf00bf; stroke-width: 1.5"/>
    <path clip-path="url(#p465edbe336)" style="fill: none; stroke-dasharray: 1.5,2.475; stroke-dashoffset: 0; stroke: #bf00bf; stroke-width: 1.5"/>
    <path d="M 189.857416 130.08 
L 189.857416 29.28 
" clip-path="url(#p465edbe336)" style="fill: none; stroke-dasharray: 1.5,2.475; stroke-dashoffset: 0; stroke: #bf00bf; stroke-width: 1.5"/>
    <path clip-path="url(#p465edbe336)" style="fill: none; stroke-dasharray: 1.5,2.475; stroke-dashoffset: 0; stroke: #bf00bf; stroke-width: 1.5"/>
    <path d="M 211.216268 130.08 
L 211.216268 29.28 
" clip-path="url(#p465edbe336)" style="fill: none; stroke-dasharray: 1.5,2.475; stroke-dashoffset: 0; stroke: #bf00bf; stroke-width: 1.5"/>
    <path clip-path="url(#p465edbe336)" style="fill: none; stroke-dasharray: 1.5,2.475; stroke-dashoffset: 0; stroke: #bf00bf; stroke-width: 1.5"/>
    <path d="M 232.57512 130.08 
L 232.57512 29.28 
" clip-path="url(#p465edbe336)" style="fill: none; stroke-dasharray: 1.5,2.475; stroke-dashoffset: 0; stroke: #bf00bf; stroke-width: 1.5"/>
    <path clip-path="url(#p465edbe336)" style="fill: none; stroke-dasharray: 1.5,2.475; stroke-dashoffset: 0; stroke: #bf00bf; stroke-width: 1.5"/>
   </g>
   <g id="line2d_11">
    <defs>
     <path id="m2dd05dbed0" d="M 0 -2.5 
L -2.5 2.5 
L 2.5 2.5 
z
" style="stroke: #bf00bf; stroke-linejoin: miter"/>
    </defs>
    <g clip-path="url(#p465edbe336)">
     <use xlink:href="#m2dd05dbed0" x="40.345455" y="29.28" style="fill: #bf00bf; stroke: #bf00bf; stroke-linejoin: miter"/>
     <use xlink:href="#m2dd05dbed0" x="61.704306" y="29.28" style="fill: #bf00bf; stroke: #bf00bf; stroke-linejoin: miter"/>
     <use xlink:href="#m2dd05dbed0" x="83.063158" y="29.28" style="fill: #bf00bf; stroke: #bf00bf; stroke-linejoin: miter"/>
     <use xlink:href="#m2dd05dbed0" x="104.42201" y="29.28" style="fill: #bf00bf; stroke: #bf00bf; stroke-linejoin: miter"/>
     <use xlink:href="#m2dd05dbed0" x="125.780861" y="29.28" style="fill: #bf00bf; stroke: #bf00bf; stroke-linejoin: miter"/>
     <use xlink:href="#m2dd05dbed0" x="147.139713" y="29.28" style="fill: #bf00bf; stroke: #bf00bf; stroke-linejoin: miter"/>
     <use xlink:href="#m2dd05dbed0" x="168.498565" y="29.28" style="fill: #bf00bf; stroke: #bf00bf; stroke-linejoin: miter"/>
     <use xlink:href="#m2dd05dbed0" x="189.857416" y="29.28" style="fill: #bf00bf; stroke: #bf00bf; stroke-linejoin: miter"/>
     <use xlink:href="#m2dd05dbed0" x="211.216268" y="29.28" style="fill: #bf00bf; stroke: #bf00bf; stroke-linejoin: miter"/>
     <use xlink:href="#m2dd05dbed0" x="232.57512" y="29.28" style="fill: #bf00bf; stroke: #bf00bf; stroke-linejoin: miter"/>
    </g>
   </g>
   <g id="line2d_12">
    <path d="M 40.345455 130.08 
L 243.254545 130.08 
" clip-path="url(#p465edbe336)" style="fill: none; stroke: #808080; stroke-width: 1.5; stroke-linecap: square"/>
   </g>
   <g id="LineCollection_2">
    <path d="M 40.345455 130.08 
L 40.345455 29.28 
" clip-path="url(#p465edbe336)" style="fill: none; stroke-dasharray: 1.5,2.475; stroke-dashoffset: 0; stroke: #0000ff; stroke-width: 1.5"/>
    <path clip-path="url(#p465edbe336)" style="fill: none; stroke-dasharray: 1.5,2.475; stroke-dashoffset: 0; stroke: #0000ff; stroke-width: 1.5"/>
    <path clip-path="url(#p465edbe336)" style="fill: none; stroke-dasharray: 1.5,2.475; stroke-dashoffset: 0; stroke: #0000ff; stroke-width: 1.5"/>
    <path d="M 72.383732 130.08 
L 72.383732 29.28 
" clip-path="url(#p465edbe336)" style="fill: none; stroke-dasharray: 1.5,2.475; stroke-dashoffset: 0; stroke: #0000ff; stroke-width: 1.5"/>
    <path clip-path="url(#p465edbe336)" style="fill: none; stroke-dasharray: 1.5,2.475; stroke-dashoffset: 0; stroke: #0000ff; stroke-width: 1.5"/>
    <path clip-path="url(#p465edbe336)" style="fill: none; stroke-dasharray: 1.5,2.475; stroke-dashoffset: 0; stroke: #0000ff; stroke-width: 1.5"/>
    <path d="M 104.42201 130.08 
L 104.42201 29.28 
" clip-path="url(#p465edbe336)" style="fill: none; stroke-dasharray: 1.5,2.475; stroke-dashoffset: 0; stroke: #0000ff; stroke-width: 1.5"/>
    <path clip-path="url(#p465edbe336)" style="fill: none; stroke-dasharray: 1.5,2.475; stroke-dashoffset: 0; stroke: #0000ff; stroke-width: 1.5"/>
    <path clip-path="url(#p465edbe336)" style="fill: none; stroke-dasharray: 1.5,2.475; stroke-dashoffset: 0; stroke: #0000ff; stroke-width: 1.5"/>
    <path d="M 136.460287 130.08 
L 136.460287 29.28 
" clip-path="url(#p465edbe336)" style="fill: none; stroke-dasharray: 1.5,2.475; stroke-dashoffset: 0; stroke: #0000ff; stroke-width: 1.5"/>
    <path clip-path="url(#p465edbe336)" style="fill: none; stroke-dasharray: 1.5,2.475; stroke-dashoffset: 0; stroke: #0000ff; stroke-width: 1.5"/>
    <path clip-path="url(#p465edbe336)" style="fill: none; stroke-dasharray: 1.5,2.475; stroke-dashoffset: 0; stroke: #0000ff; stroke-width: 1.5"/>
    <path d="M 168.498565 130.08 
L 168.498565 29.28 
" clip-path="url(#p465edbe336)" style="fill: none; stroke-dasharray: 1.5,2.475; stroke-dashoffset: 0; stroke: #0000ff; stroke-width: 1.5"/>
    <path clip-path="url(#p465edbe336)" style="fill: none; stroke-dasharray: 1.5,2.475; stroke-dashoffset: 0; stroke: #0000ff; stroke-width: 1.5"/>
    <path clip-path="url(#p465edbe336)" style="fill: none; stroke-dasharray: 1.5,2.475; stroke-dashoffset: 0; stroke: #0000ff; stroke-width: 1.5"/>
    <path d="M 200.536842 130.08 
L 200.536842 29.28 
" clip-path="url(#p465edbe336)" style="fill: none; stroke-dasharray: 1.5,2.475; stroke-dashoffset: 0; stroke: #0000ff; stroke-width: 1.5"/>
    <path clip-path="url(#p465edbe336)" style="fill: none; stroke-dasharray: 1.5,2.475; stroke-dashoffset: 0; stroke: #0000ff; stroke-width: 1.5"/>
    <path clip-path="url(#p465edbe336)" style="fill: none; stroke-dasharray: 1.5,2.475; stroke-dashoffset: 0; stroke: #0000ff; stroke-width: 1.5"/>
    <path d="M 232.57512 130.08 
L 232.57512 29.28 
" clip-path="url(#p465edbe336)" style="fill: none; stroke-dasharray: 1.5,2.475; stroke-dashoffset: 0; stroke: #0000ff; stroke-width: 1.5"/>
    <path clip-path="url(#p465edbe336)" style="fill: none; stroke-dasharray: 1.5,2.475; stroke-dashoffset: 0; stroke: #0000ff; stroke-width: 1.5"/>
   </g>
   <g id="line2d_13">
    <defs>
     <path id="m1b2ef1ca61" d="M 0 -2.5 
L -2.5 2.5 
L 2.5 2.5 
z
" style="stroke: #0000ff; stroke-linejoin: miter"/>
    </defs>
    <g clip-path="url(#p465edbe336)">
     <use xlink:href="#m1b2ef1ca61" x="40.345455" y="29.28" style="fill: #0000ff; stroke: #0000ff; stroke-linejoin: miter"/>
     <use xlink:href="#m1b2ef1ca61" x="72.383732" y="29.28" style="fill: #0000ff; stroke: #0000ff; stroke-linejoin: miter"/>
     <use xlink:href="#m1b2ef1ca61" x="104.42201" y="29.28" style="fill: #0000ff; stroke: #0000ff; stroke-linejoin: miter"/>
     <use xlink:href="#m1b2ef1ca61" x="136.460287" y="29.28" style="fill: #0000ff; stroke: #0000ff; stroke-linejoin: miter"/>
     <use xlink:href="#m1b2ef1ca61" x="168.498565" y="29.28" style="fill: #0000ff; stroke: #0000ff; stroke-linejoin: miter"/>
     <use xlink:href="#m1b2ef1ca61" x="200.536842" y="29.28" style="fill: #0000ff; stroke: #0000ff; stroke-linejoin: miter"/>
     <use xlink:href="#m1b2ef1ca61" x="232.57512" y="29.28" style="fill: #0000ff; stroke: #0000ff; stroke-linejoin: miter"/>
    </g>
   </g>
   <g id="line2d_14">
    <path d="M 40.345455 130.08 
L 243.254545 130.08 
" clip-path="url(#p465edbe336)" style="fill: none; stroke: #808080; stroke-width: 1.5; stroke-linecap: square"/>
   </g>
   <g id="LineCollection_3">
    <path d="M 40.345455 130.08 
L 40.345455 29.28 
" clip-path="url(#p465edbe336)" style="fill: none; stroke: #ff0000; stroke-width: 1.5"/>
    <path clip-path="url(#p465edbe336)" style="fill: none; stroke: #ff0000; stroke-width: 1.5"/>
    <path clip-path="url(#p465edbe336)" style="fill: none; stroke: #ff0000; stroke-width: 1.5"/>
    <path clip-path="url(#p465edbe336)" style="fill: none; stroke: #ff0000; stroke-width: 1.5"/>
    <path clip-path="url(#p465edbe336)" style="fill: none; stroke: #ff0000; stroke-width: 1.5"/>
    <path clip-path="url(#p465edbe336)" style="fill: none; stroke: #ff0000; stroke-width: 1.5"/>
    <path d="M 104.42201 130.08 
L 104.42201 29.28 
" clip-path="url(#p465edbe336)" style="fill: none; stroke: #ff0000; stroke-width: 1.5"/>
    <path clip-path="url(#p465edbe336)" style="fill: none; stroke: #ff0000; stroke-width: 1.5"/>
    <path clip-path="url(#p465edbe336)" style="fill: none; stroke: #ff0000; stroke-width: 1.5"/>
    <path clip-path="url(#p465edbe336)" style="fill: none; stroke: #ff0000; stroke-width: 1.5"/>
    <path clip-path="url(#p465edbe336)" style="fill: none; stroke: #ff0000; stroke-width: 1.5"/>
    <path clip-path="url(#p465edbe336)" style="fill: none; stroke: #ff0000; stroke-width: 1.5"/>
    <path d="M 168.498565 130.08 
L 168.498565 29.28 
" clip-path="url(#p465edbe336)" style="fill: none; stroke: #ff0000; stroke-width: 1.5"/>
    <path clip-path="url(#p465edbe336)" style="fill: none; stroke: #ff0000; stroke-width: 1.5"/>
    <path clip-path="url(#p465edbe336)" style="fill: none; stroke: #ff0000; stroke-width: 1.5"/>
    <path clip-path="url(#p465edbe336)" style="fill: none; stroke: #ff0000; stroke-width: 1.5"/>
    <path clip-path="url(#p465edbe336)" style="fill: none; stroke: #ff0000; stroke-width: 1.5"/>
    <path clip-path="url(#p465edbe336)" style="fill: none; stroke: #ff0000; stroke-width: 1.5"/>
    <path d="M 232.57512 130.08 
L 232.57512 29.28 
" clip-path="url(#p465edbe336)" style="fill: none; stroke: #ff0000; stroke-width: 1.5"/>
    <path clip-path="url(#p465edbe336)" style="fill: none; stroke: #ff0000; stroke-width: 1.5"/>
   </g>
   <g id="line2d_15">
    <defs>
     <path id="m1a9e6b0dc1" d="M 0 -2.5 
L -2.5 2.5 
L 2.5 2.5 
z
" style="stroke: #ff0000; stroke-linejoin: miter"/>
    </defs>
    <g clip-path="url(#p465edbe336)">
     <use xlink:href="#m1a9e6b0dc1" x="40.345455" y="29.28" style="fill: #ff0000; stroke: #ff0000; stroke-linejoin: miter"/>
     <use xlink:href="#m1a9e6b0dc1" x="104.42201" y="29.28" style="fill: #ff0000; stroke: #ff0000; stroke-linejoin: miter"/>
     <use xlink:href="#m1a9e6b0dc1" x="168.498565" y="29.28" style="fill: #ff0000; stroke: #ff0000; stroke-linejoin: miter"/>
     <use xlink:href="#m1a9e6b0dc1" x="232.57512" y="29.28" style="fill: #ff0000; stroke: #ff0000; stroke-linejoin: miter"/>
    </g>
   </g>
   <g id="line2d_16">
    <path d="M 40.345455 130.08 
L 243.254545 130.08 
" clip-path="url(#p465edbe336)" style="fill: none; stroke: #808080; stroke-width: 1.5; stroke-linecap: square"/>
   </g>
   <g id="patch_3">
    <path d="M 30.2 130.08 
L 30.2 19.2 
" style="fill: none; stroke: #ffffff; stroke-width: 0.8; stroke-linejoin: miter; stroke-linecap: square"/>
   </g>
   <g id="patch_4">
    <path d="M 253.4 130.08 
L 253.4 19.2 
" style="fill: none; stroke: #ffffff; stroke-width: 0.8; stroke-linejoin: miter; stroke-linecap: square"/>
   </g>
   <g id="patch_5">
    <path d="M 30.2 130.08 
L 253.4 130.08 
" style="fill: none; stroke: #ffffff; stroke-width: 0.8; stroke-linejoin: miter; stroke-linecap: square"/>
   </g>
   <g id="patch_6">
    <path d="M 30.2 19.2 
L 253.4 19.2 
" style="fill: none; stroke: #ffffff; stroke-width: 0.8; stroke-linejoin: miter; stroke-linecap: square"/>
   </g>
   <g id="text_13">
    <!-- L/D Coincidence by common multiples -->
    <g style="fill: #ffffff" transform="translate(49.4 13.2) scale(0.096 -0.096)">
     <defs>
      <path id="04b03-4c" d="M 2400 0 
L 2400 800 
L 800 800 
L 800 4000 
L 0 4000 
L 0 0 
L 2400 0 
z
" transform="scale(0.015625)"/>
      <path id="04b03-2f" d="M 2400 2400 
L 3200 2400 
L 3200 3200 
L 2400 3200 
L 2400 2400 
z
M 3200 4000 
L 3200 3200 
L 4000 3200 
L 4000 4000 
L 3200 4000 
z
M 800 800 
L 1600 800 
L 1600 1600 
L 800 1600 
L 800 800 
z
M 1600 1600 
L 2400 1600 
L 2400 2400 
L 1600 2400 
L 1600 1600 
z
M 0 0 
L 800 0 
L 800 800 
L 0 800 
L 0 0 
z
" transform="scale(0.015625)"/>
      <path id="04b03-44" d="M 2400 806 
L 2400 3194 
L 800 3194 
L 800 806 
L 2400 806 
z
M 2400 0 
L 0 0 
L 0 4000 
L 2400 4000 
L 2400 3200 
L 3200 3200 
L 3200 800 
L 2400 800 
L 2400 0 
z
" transform="scale(0.015625)"/>
      <path id="04b03-43" d="M 2400 3200 
L 2400 4000 
L 800 4000 
L 800 3200 
L 2400 3200 
z
M 800 3200 
L 0 3200 
L 0 800 
L 800 800 
L 800 3200 
z
M 2400 0 
L 2400 800 
L 800 800 
L 800 0 
L 2400 0 
z
" transform="scale(0.015625)"/>
      <path id="04b03-6f" d="M 2400 806 
L 2400 2394 
L 800 2394 
L 800 806 
L 2400 806 
z
M 800 800 
L 0 800 
L 0 2400 
L 800 2400 
L 800 3200 
L 2400 3200 
L 2400 2400 
L 3200 2400 
L 3200 800 
L 2400 800 
L 2400 0 
L 800 0 
L 800 800 
z
" transform="scale(0.015625)"/>
      <path id="04b03-63" d="M 2400 2400 
L 2400 3200 
L 800 3200 
L 800 2400 
L 2400 2400 
z
M 800 2400 
L 0 2400 
L 0 800 
L 800 800 
L 800 2400 
z
M 2400 0 
L 2400 800 
L 800 800 
L 800 0 
L 2400 0 
z
" transform="scale(0.015625)"/>
      <path id="04b03-64" d="M 800 806 
L 2400 806 
L 2400 2394 
L 800 2394 
L 800 806 
z
M 800 2400 
L 800 3200 
L 2400 3200 
L 2400 4000 
L 3200 4000 
L 3200 0 
L 800 0 
L 800 800 
L 0 800 
L 0 2400 
L 800 2400 
z
" transform="scale(0.015625)"/>
      <path id="04b03-62" d="M 2400 2400 
L 3200 2400 
L 3200 800 
L 2400 800 
L 2400 0 
L 0 0 
L 0 4000 
L 800 4000 
L 800 3200 
L 2400 3200 
L 2400 2400 
z
M 800 806 
L 2400 806 
L 2400 2394 
L 800 2394 
L 800 806 
z
" transform="scale(0.015625)"/>
      <path id="04b03-79" d="M 800 3200 
L 0 3200 
L 0 800 
L 800 800 
L 800 3200 
z
M 2400 0 
L 2400 -800 
L 3200 -800 
L 3200 3200 
L 2400 3200 
L 2400 800 
L 800 800 
L 800 0 
L 2400 0 
z
M 800 -800 
L 800 -1600 
L 2400 -1600 
L 2400 -800 
L 800 -800 
z
" transform="scale(0.015625)"/>
      <path id="04b03-6c" d="M 800 4000 
L 0 4000 
L 0 0 
L 800 0 
L 800 4000 
z
" transform="scale(0.015625)"/>
      <path id="04b03-70" d="M 2400 2400 
L 3200 2400 
L 3200 800 
L 2400 800 
L 2400 0 
L 800 0 
L 800 -1600 
L 0 -1600 
L 0 3200 
L 2400 3200 
L 2400 2400 
z
M 800 806 
L 2400 806 
L 2400 2394 
L 800 2394 
L 800 806 
z
" transform="scale(0.015625)"/>
      <path id="04b03-73" d="M 800 3200 
L 800 2400 
L 0 2400 
L 0 1600 
L 1600 1600 
L 1600 2400 
L 3200 2400 
L 3200 3200 
L 800 3200 
z
M 0 800 
L 0 0 
L 2400 0 
L 2400 800 
L 3200 800 
L 3200 1600 
L 1600 1600 
L 1600 800 
L 0 800 
z
" transform="scale(0.015625)"/>
     </defs>
     <use xlink:href="#04b03-4c"/>
     <use xlink:href="#04b03-2f" transform="translate(49.999985 0)"/>
     <use xlink:href="#04b03-44" transform="translate(124.999969 0)"/>
     <use xlink:href="#04b03-20" transform="translate(187.499954 0)"/>
     <use xlink:href="#04b03-43" transform="translate(237.499939 0)"/>
     <use xlink:href="#04b03-6f" transform="translate(287.499924 0)"/>
     <use xlink:href="#04b03-69" transform="translate(349.999908 0)"/>
     <use xlink:href="#04b03-6e" transform="translate(374.999893 0)"/>
     <use xlink:href="#04b03-63" transform="translate(437.499878 0)"/>
     <use xlink:href="#04b03-69" transform="translate(487.499863 0)"/>
     <use xlink:href="#04b03-64" transform="translate(512.499847 0)"/>
     <use xlink:href="#04b03-65" transform="translate(574.999832 0)"/>
     <use xlink:href="#04b03-6e" transform="translate(637.499817 0)"/>
     <use xlink:href="#04b03-63" transform="translate(699.999802 0)"/>
     <use xlink:href="#04b03-65" transform="translate(749.999786 0)"/>
     <use xlink:href="#04b03-20" transform="translate(812.499771 0)"/>
     <use xlink:href="#04b03-62" transform="translate(862.499756 0)"/>
     <use xlink:href="#04b03-79" transform="translate(924.999741 0)"/>
     <use xlink:href="#04b03-20" transform="translate(987.499725 0)"/>
     <use xlink:href="#04b03-63" transform="translate(1037.49971 0)"/>
     <use xlink:href="#04b03-6f" transform="translate(1087.499695 0)"/>
     <use xlink:href="#04b03-6d" transform="translate(1149.99968 0)"/>
     <use xlink:href="#04b03-6d" transform="translate(1224.999664 0)"/>
     <use xlink:href="#04b03-6f" transform="translate(1299.999649 0)"/>
     <use xlink:href="#04b03-6e" transform="translate(1362.499634 0)"/>
     <use xlink:href="#04b03-20" transform="translate(1424.999619 0)"/>
     <use xlink:href="#04b03-6d" transform="translate(1474.999603 0)"/>
     <use xlink:href="#04b03-75" transform="translate(1549.999588 0)"/>
     <use xlink:href="#04b03-6c" transform="translate(1612.499573 0)"/>
     <use xlink:href="#04b03-74" transform="translate(1637.499557 0)"/>
     <use xlink:href="#04b03-69" transform="translate(1687.499542 0)"/>
     <use xlink:href="#04b03-70" transform="translate(1712.499527 0)"/>
     <use xlink:href="#04b03-6c" transform="translate(1774.999512 0)"/>
     <use xlink:href="#04b03-65" transform="translate(1799.999496 0)"/>
     <use xlink:href="#04b03-73" transform="translate(1862.499481 0)"/>
    </g>
   </g>
   <g id="legend_1">
    <g id="patch_7">
     <path d="M 50.6 181.344 
L 233 181.344 
Q 234.6 181.344 234.6 179.744 
L 234.6 168.944 
Q 234.6 167.344 233 167.344 
L 50.6 167.344 
Q 49 167.344 49 168.944 
L 49 179.744 
Q 49 181.344 50.6 181.344 
L 50.6 181.344 
z
" style="fill: none; opacity: 0"/>
    </g>
    <g id="line2d_17">
     <path d="M 60.2 176.144 
L 60.2 172.294 
" style="fill: none; stroke-dasharray: 2.25,3.7125; stroke-dashoffset: 0; stroke: #bf00bf; stroke-width: 1.5"/>
    </g>
    <g id="line2d_18">
     <path d="M 52.2 176.144 
L 68.2 176.144 
" style="fill: none; stroke: #808080; stroke-width: 1.5; stroke-linecap: square"/>
    </g>
    <g id="line2d_19">
     <g>
      <use xlink:href="#m2dd05dbed0" x="60.2" y="172.294" style="fill: #bf00bf; stroke: #bf00bf; stroke-linejoin: miter"/>
     </g>
    </g>
    <g id="text_14">
     <!-- Life -->
     <g style="fill: #ffffff" transform="translate(74.6 176.144) scale(0.08 -0.08)">
      <defs>
       <path id="04b03-66" d="M 2400 4000 
L 1600 4000 
L 1600 3200 
L 2400 3200 
L 2400 4000 
z
M 800 3200 
L 800 2400 
L 0 2400 
L 0 1600 
L 800 1600 
L 800 0 
L 1600 0 
L 1600 1600 
L 2400 1600 
L 2400 2400 
L 1600 2400 
L 1600 3200 
L 800 3200 
z
" transform="scale(0.015625)"/>
      </defs>
      <use xlink:href="#04b03-4c"/>
      <use xlink:href="#04b03-69" transform="translate(49.999985 0)"/>
      <use xlink:href="#04b03-66" transform="translate(74.999969 0)"/>
      <use xlink:href="#04b03-65" transform="translate(124.999954 0)"/>
     </g>
    </g>
    <g id="line2d_20">
     <path d="M 113.6 176.144 
L 113.6 172.294 
" style="fill: none; stroke-dasharray: 2.25,3.7125; stroke-dashoffset: 0; stroke: #0000ff; stroke-width: 1.5"/>
    </g>
    <g id="line2d_21">
     <path d="M 105.6 176.144 
L 121.6 176.144 
" style="fill: none; stroke: #808080; stroke-width: 1.5; stroke-linecap: square"/>
    </g>
    <g id="line2d_22">
     <g>
      <use xlink:href="#m1b2ef1ca61" x="113.6" y="172.294" style="fill: #0000ff; stroke: #0000ff; stroke-linejoin: miter"/>
     </g>
    </g>
    <g id="text_15">
     <!-- Death -->
     <g style="fill: #ffffff" transform="translate(128 176.144) scale(0.08 -0.08)">
      <use xlink:href="#04b03-44"/>
      <use xlink:href="#04b03-65" transform="translate(62.499985 0)"/>
      <use xlink:href="#04b03-61" transform="translate(124.999969 0)"/>
      <use xlink:href="#04b03-74" transform="translate(187.499954 0)"/>
      <use xlink:href="#04b03-68" transform="translate(237.499939 0)"/>
     </g>
    </g>
    <g id="line2d_23">
     <path d="M 176 176.144 
L 176 172.294 
" style="fill: none; stroke: #ff0000; stroke-width: 1.5"/>
    </g>
    <g id="line2d_24">
     <path d="M 168 176.144 
L 184 176.144 
" style="fill: none; stroke: #808080; stroke-width: 1.5; stroke-linecap: square"/>
    </g>
    <g id="line2d_25">
     <g>
      <use xlink:href="#m1a9e6b0dc1" x="176" y="172.294" style="fill: #ff0000; stroke: #ff0000; stroke-linejoin: miter"/>
     </g>
    </g>
    <g id="text_16">
     <!-- Coincident -->
     <g style="fill: #ffffff" transform="translate(190.4 176.144) scale(0.08 -0.08)">
      <use xlink:href="#04b03-43"/>
      <use xlink:href="#04b03-6f" transform="translate(49.999985 0)"/>
      <use xlink:href="#04b03-69" transform="translate(112.499969 0)"/>
      <use xlink:href="#04b03-6e" transform="translate(137.499954 0)"/>
      <use xlink:href="#04b03-63" transform="translate(199.999939 0)"/>
      <use xlink:href="#04b03-69" transform="translate(249.999924 0)"/>
      <use xlink:href="#04b03-64" transform="translate(274.999908 0)"/>
      <use xlink:href="#04b03-65" transform="translate(337.499893 0)"/>
      <use xlink:href="#04b03-6e" transform="translate(399.999878 0)"/>
      <use xlink:href="#04b03-74" transform="translate(462.499863 0)"/>
     </g>
    </g>
   </g>
  </g>
 </g>
 <defs>
  <clipPath id="p465edbe336">
   <rect x="30.2" y="19.2" width="223.2" height="110.88"/>
  </clipPath>
 </defs>
</svg>
