<?xml version="1.0" encoding="utf-8" standalone="no"?>
<!DOCTYPE svg PUBLIC "-//W3C//DTD SVG 1.1//EN"
  "http://www.w3.org/Graphics/SVG/1.1/DTD/svg11.dtd">
<svg xmlns:xlink="http://www.w3.org/1999/xlink" width="291.6pt" height="291.6pt" viewBox="0 0 291.6 291.6" xmlns="http://www.w3.org/2000/svg" version="1.1">
 <metadata>
  <rdf:RDF xmlns:dc="http://purl.org/dc/elements/1.1/" xmlns:cc="http://creativecommons.org/ns#" xmlns:rdf="http://www.w3.org/1999/02/22-rdf-syntax-ns#">
   <cc:Work>
    <dc:type rdf:resource="http://purl.org/dc/dcmitype/StillImage"/>
    <dc:date>2025-09-15T20:17:04.627786</dc:date>
    <dc:format>image/svg+xml</dc:format>
    <dc:creator>
     <cc:Agent>
      <dc:title>Matplotlib v3.10.6, https://matplotlib.org/</dc:title>
     </cc:Agent>
    </dc:creator>
   </cc:Work>
  </rdf:RDF>
 </metadata>
 <defs>
  <style type="text/css">*{stroke-linejoin: round; stroke-linecap: butt}</style>
 </defs>
 <g id="figure_1">
  <g id="patch_1">
   <path d="M 0 291.6 
L 291.6 291.6 
L 291.6 0 
L 0 0 
z
" style="fill: #ffffff"/>
  </g>
  <g id="axes_1">
   <g id="patch_2">
    <path d="M 7.2 284.4 
L 284.4 284.4 
L 284.4 7.2 
L 7.2 7.2 
z
" style="fill: #ffffff"/>
   </g>
   <g id="matplotlib.axis_1"/>
   <g id="matplotlib.axis_2"/>
   <g id="line2d_1">
    <path d="M 252.415385 145.8 
L 252.268457 140.204653 
L 251.828079 134.624729 
L 251.095465 129.075606 
L 250.072633 123.572579 
L 248.762403 118.130816 
L 247.168387 112.765315 
L 245.294977 107.490864 
L 243.147337 102.322003 
L 240.731386 97.272975 
L 238.053784 92.357699 
L 235.121911 87.589722 
L 231.943847 82.982185 
L 228.528351 78.547787 
L 224.884839 74.298752 
L 221.023351 70.246789 
L 216.954531 66.403067 
L 212.689594 62.778181 
L 208.240295 59.382121 
L 203.618896 56.224247 
L 198.838136 53.313264 
L 193.911191 50.657194 
L 188.851642 48.263359 
L 183.673432 46.138356 
L 178.390835 44.288042 
L 173.018411 42.717517 
L 167.570967 41.43111 
L 162.063518 40.432366 
L 156.511242 39.724039 
L 150.929444 39.30808 
L 145.333508 39.185636 
L 139.738858 39.357044 
L 134.160914 39.821833 
L 128.61505 40.57872 
L 123.116551 41.62562 
L 117.680572 42.959648 
L 112.322097 44.577126 
L 107.055895 46.473596 
L 101.896479 48.643831 
L 96.858071 51.081851 
L 91.954558 53.780933 
L 87.199455 56.733641 
L 82.605867 59.931835 
L 78.186456 63.3667 
L 73.953403 67.028769 
L 69.918375 70.907949 
L 66.092493 74.993548 
L 62.486303 79.274305 
L 59.109743 83.738421 
L 55.97212 88.373593 
L 53.082083 93.167044 
L 50.447596 98.105563 
L 48.075922 103.175538 
L 45.973596 108.362996 
L 44.146413 113.653638 
L 42.59941 119.032883 
L 41.336851 124.485903 
L 40.362214 129.99767 
L 39.678188 135.552992 
L 39.286656 141.136556 
L 39.188698 146.732974 
L 39.384584 152.326821 
L 39.873774 157.902678 
L 40.65492 163.445178 
L 41.725868 168.939043 
L 43.083668 174.369133 
L 44.724576 179.720479 
L 46.64407 184.978334 
L 48.83686 190.128204 
L 51.296901 195.155896 
L 54.017413 200.047553 
L 56.990898 204.789691 
L 60.20916 209.369241 
L 63.66333 213.77358 
L 67.343886 217.99057 
L 71.240684 222.008586 
L 75.342983 225.816555 
L 79.639478 229.403981 
L 84.118326 232.760976 
L 88.767181 235.878287 
L 93.573232 238.747323 
L 98.523231 241.360176 
L 103.603535 243.709645 
L 108.800141 245.789253 
L 114.098728 247.593269 
L 119.48469 249.11672 
L 124.943182 250.355408 
L 130.459161 251.305919 
L 136.017422 251.965632 
L 141.602646 252.33273 
L 147.199439 252.4062 
L 152.792375 252.18584 
L 158.366039 251.672258 
L 163.905067 250.866868 
L 169.394194 249.771892 
L 174.818291 248.390346 
L 180.162406 246.726039 
L 185.411812 244.783557 
L 190.552038 242.568256 
L 195.568919 240.08624 
L 200.448625 237.34435 
L 205.177707 234.350145 
L 209.743132 231.111875 
L 214.132316 227.638468 
L 218.33316 223.939496 
L 222.334088 220.025155 
L 226.124071 215.906233 
L 229.692663 211.594082 
L 233.030029 207.100589 
L 236.12697 202.438139 
L 238.97495 197.619581 
L 241.566119 192.658197 
L 243.893337 187.567661 
L 245.950187 182.362005 
L 247.731002 177.055576 
L 249.230873 171.663 
L 250.445666 166.19914 
L 251.372032 160.679055 
L 252.007419 155.11796 
L 252.350075 149.531183 
L 252.415385 145.8 
L 252.415385 145.8 
" clip-path="url(#pcffe147590)" style="fill: none; stroke: #1f77b4; stroke-width: 1.5; stroke-linecap: square"/>
   </g>
   <g id="line2d_2">
    <path d="M 145.8 145.8 
L 78.827028 62.845427 
" clip-path="url(#pcffe147590)" style="fill: none; stroke: #ff7f0e; stroke-width: 1.4; stroke-linecap: square"/>
   </g>
   <g id="line2d_3">
    <path d="M 145.8 145.8 
L 123.325925 250.019749 
" clip-path="url(#pcffe147590)" style="fill: none; stroke: #2ca02c; stroke-width: 1.4; stroke-linecap: square"/>
   </g>
   <g id="line2d_4">
    <path d="M 145.8 145.8 
L 241.008215 97.818378 
" clip-path="url(#pcffe147590)" style="fill: none; stroke: #d62728; stroke-width: 1.4; stroke-linecap: square"/>
   </g>
   <g id="line2d_5">
    <path d="M 145.8 145.8 
L 48.659497 101.861829 
" clip-path="url(#pcffe147590)" style="fill: none; stroke: #9467bd; stroke-width: 1.4; stroke-linecap: square"/>
   </g>
   <g id="line2d_6">
    <path d="M 145.8 145.8 
L 172.633989 248.983222 
" clip-path="url(#pcffe147590)" style="fill: none; stroke: #8c564b; stroke-width: 1.4; stroke-linecap: square"/>
   </g>
   <g id="line2d_7">
    <path d="M 145.8 145.8 
L 209.227695 60.104214 
" clip-path="url(#pcffe147590)" style="fill: none; stroke: #e377c2; stroke-width: 1.4; stroke-linecap: square"/>
   </g>
   <g id="line2d_8">
    <path d="M 145.8 145.8 
L 39.278801 150.280443 
" clip-path="url(#pcffe147590)" style="fill: none; stroke: #7f7f7f; stroke-width: 1.4; stroke-linecap: square"/>
   </g>
   <g id="line2d_9">
    <path d="M 145.8 145.8 
L 216.19992 225.866794 
" clip-path="url(#pcffe147590)" style="fill: none; stroke: #bcbd22; stroke-width: 1.4; stroke-linecap: square"/>
   </g>
   <g id="line2d_10">
    <path d="M 145.8 145.8 
L 163.874454 40.727861 
" clip-path="url(#pcffe147590)" style="fill: none; stroke: #17becf; stroke-width: 1.4; stroke-linecap: square"/>
   </g>
   <g id="line2d_11">
    <path d="M 145.8 145.8 
L 52.69229 197.740298 
" clip-path="url(#pcffe147590)" style="fill: none; stroke: #1f77b4; stroke-width: 1.4; stroke-linecap: square"/>
   </g>
   <g id="text_1">
    <!-- Stroboscopic: Forward -->
    <g transform="translate(90.325781 15.781851) scale(0.1 -0.1)">
     <defs>
      <path id="DejaVuSans-53" d="M 3425 4513 
L 3425 3897 
Q 3066 4069 2747 4153 
Q 2428 4238 2131 4238 
Q 1616 4238 1336 4038 
Q 1056 3838 1056 3469 
Q 1056 3159 1242 3001 
Q 1428 2844 1947 2747 
L 2328 2669 
Q 3034 2534 3370 2195 
Q 3706 1856 3706 1288 
Q 3706 609 3251 259 
Q 2797 -91 1919 -91 
Q 1588 -91 1214 -16 
Q 841 59 441 206 
L 441 856 
Q 825 641 1194 531 
Q 1563 422 1919 422 
Q 2459 422 2753 634 
Q 3047 847 3047 1241 
Q 3047 1584 2836 1778 
Q 2625 1972 2144 2069 
L 1759 2144 
Q 1053 2284 737 2584 
Q 422 2884 422 3419 
Q 422 4038 858 4394 
Q 1294 4750 2059 4750 
Q 2388 4750 2728 4690 
Q 3069 4631 3425 4513 
z
" transform="scale(0.015625)"/>
      <path id="DejaVuSans-74" d="M 1172 4494 
L 1172 3500 
L 2356 3500 
L 2356 3053 
L 1172 3053 
L 1172 1153 
Q 1172 725 1289 603 
Q 1406 481 1766 481 
L 2356 481 
L 2356 0 
L 1766 0 
Q 1100 0 847 248 
Q 594 497 594 1153 
L 594 3053 
L 172 3053 
L 172 3500 
L 594 3500 
L 594 4494 
L 1172 4494 
z
" transform="scale(0.015625)"/>
      <path id="DejaVuSans-72" d="M 2631 2963 
Q 2534 3019 2420 3045 
Q 2306 3072 2169 3072 
Q 1681 3072 1420 2755 
Q 1159 2438 1159 1844 
L 1159 0 
L 581 0 
L 581 3500 
L 1159 3500 
L 1159 2956 
Q 1341 3275 1631 3429 
Q 1922 3584 2338 3584 
Q 2397 3584 2469 3576 
Q 2541 3569 2628 3553 
L 2631 2963 
z
" transform="scale(0.015625)"/>
      <path id="DejaVuSans-6f" d="M 1959 3097 
Q 1497 3097 1228 2736 
Q 959 2375 959 1747 
Q 959 1119 1226 758 
Q 1494 397 1959 397 
Q 2419 397 2687 759 
Q 2956 1122 2956 1747 
Q 2956 2369 2687 2733 
Q 2419 3097 1959 3097 
z
M 1959 3584 
Q 2709 3584 3137 3096 
Q 3566 2609 3566 1747 
Q 3566 888 3137 398 
Q 2709 -91 1959 -91 
Q 1206 -91 779 398 
Q 353 888 353 1747 
Q 353 2609 779 3096 
Q 1206 3584 1959 3584 
z
" transform="scale(0.015625)"/>
      <path id="DejaVuSans-62" d="M 3116 1747 
Q 3116 2381 2855 2742 
Q 2594 3103 2138 3103 
Q 1681 3103 1420 2742 
Q 1159 2381 1159 1747 
Q 1159 1113 1420 752 
Q 1681 391 2138 391 
Q 2594 391 2855 752 
Q 3116 1113 3116 1747 
z
M 1159 2969 
Q 1341 3281 1617 3432 
Q 1894 3584 2278 3584 
Q 2916 3584 3314 3078 
Q 3713 2572 3713 1747 
Q 3713 922 3314 415 
Q 2916 -91 2278 -91 
Q 1894 -91 1617 61 
Q 1341 213 1159 525 
L 1159 0 
L 581 0 
L 581 4863 
L 1159 4863 
L 1159 2969 
z
" transform="scale(0.015625)"/>
      <path id="DejaVuSans-73" d="M 2834 3397 
L 2834 2853 
Q 2591 2978 2328 3040 
Q 2066 3103 1784 3103 
Q 1356 3103 1142 2972 
Q 928 2841 928 2578 
Q 928 2378 1081 2264 
Q 1234 2150 1697 2047 
L 1894 2003 
Q 2506 1872 2764 1633 
Q 3022 1394 3022 966 
Q 3022 478 2636 193 
Q 2250 -91 1575 -91 
Q 1294 -91 989 -36 
Q 684 19 347 128 
L 347 722 
Q 666 556 975 473 
Q 1284 391 1588 391 
Q 1994 391 2212 530 
Q 2431 669 2431 922 
Q 2431 1156 2273 1281 
Q 2116 1406 1581 1522 
L 1381 1569 
Q 847 1681 609 1914 
Q 372 2147 372 2553 
Q 372 3047 722 3315 
Q 1072 3584 1716 3584 
Q 2034 3584 2315 3537 
Q 2597 3491 2834 3397 
z
" transform="scale(0.015625)"/>
      <path id="DejaVuSans-63" d="M 3122 3366 
L 3122 2828 
Q 2878 2963 2633 3030 
Q 2388 3097 2138 3097 
Q 1578 3097 1268 2742 
Q 959 2388 959 1747 
Q 959 1106 1268 751 
Q 1578 397 2138 397 
Q 2388 397 2633 464 
Q 2878 531 3122 666 
L 3122 134 
Q 2881 22 2623 -34 
Q 2366 -91 2075 -91 
Q 1284 -91 818 406 
Q 353 903 353 1747 
Q 353 2603 823 3093 
Q 1294 3584 2113 3584 
Q 2378 3584 2631 3529 
Q 2884 3475 3122 3366 
z
" transform="scale(0.015625)"/>
      <path id="DejaVuSans-70" d="M 1159 525 
L 1159 -1331 
L 581 -1331 
L 581 3500 
L 1159 3500 
L 1159 2969 
Q 1341 3281 1617 3432 
Q 1894 3584 2278 3584 
Q 2916 3584 3314 3078 
Q 3713 2572 3713 1747 
Q 3713 922 3314 415 
Q 2916 -91 2278 -91 
Q 1894 -91 1617 61 
Q 1341 213 1159 525 
z
M 3116 1747 
Q 3116 2381 2855 2742 
Q 2594 3103 2138 3103 
Q 1681 3103 1420 2742 
Q 1159 2381 1159 1747 
Q 1159 1113 1420 752 
Q 1681 391 2138 391 
Q 2594 391 2855 752 
Q 3116 1113 3116 1747 
z
" transform="scale(0.015625)"/>
      <path id="DejaVuSans-69" d="M 603 3500 
L 1178 3500 
L 1178 0 
L 603 0 
L 603 3500 
z
M 603 4863 
L 1178 4863 
L 1178 4134 
L 603 4134 
L 603 4863 
z
" transform="scale(0.015625)"/>
      <path id="DejaVuSans-3a" d="M 750 794 
L 1409 794 
L 1409 0 
L 750 0 
L 750 794 
z
M 750 3309 
L 1409 3309 
L 1409 2516 
L 750 2516 
L 750 3309 
z
" transform="scale(0.015625)"/>
      <path id="DejaVuSans-20" transform="scale(0.015625)"/>
      <path id="DejaVuSans-46" d="M 628 4666 
L 3309 4666 
L 3309 4134 
L 1259 4134 
L 1259 2759 
L 3109 2759 
L 3109 2228 
L 1259 2228 
L 1259 0 
L 628 0 
L 628 4666 
z
" transform="scale(0.015625)"/>
      <path id="DejaVuSans-77" d="M 269 3500 
L 844 3500 
L 1563 769 
L 2278 3500 
L 2956 3500 
L 3675 769 
L 4391 3500 
L 4966 3500 
L 4050 0 
L 3372 0 
L 2619 2869 
L 1863 0 
L 1184 0 
L 269 3500 
z
" transform="scale(0.015625)"/>
      <path id="DejaVuSans-61" d="M 2194 1759 
Q 1497 1759 1228 1600 
Q 959 1441 959 1056 
Q 959 750 1161 570 
Q 1363 391 1709 391 
Q 2188 391 2477 730 
Q 2766 1069 2766 1631 
L 2766 1759 
L 2194 1759 
z
M 3341 1997 
L 3341 0 
L 2766 0 
L 2766 531 
Q 2569 213 2275 61 
Q 1981 -91 1556 -91 
Q 1019 -91 701 211 
Q 384 513 384 1019 
Q 384 1609 779 1909 
Q 1175 2209 1959 2209 
L 2766 2209 
L 2766 2266 
Q 2766 2663 2505 2880 
Q 2244 3097 1772 3097 
Q 1472 3097 1187 3025 
Q 903 2953 641 2809 
L 641 3341 
Q 956 3463 1253 3523 
Q 1550 3584 1831 3584 
Q 2591 3584 2966 3190 
Q 3341 2797 3341 1997 
z
" transform="scale(0.015625)"/>
      <path id="DejaVuSans-64" d="M 2906 2969 
L 2906 4863 
L 3481 4863 
L 3481 0 
L 2906 0 
L 2906 525 
Q 2725 213 2448 61 
Q 2172 -91 1784 -91 
Q 1150 -91 751 415 
Q 353 922 353 1747 
Q 353 2572 751 3078 
Q 1150 3584 1784 3584 
Q 2172 3584 2448 3432 
Q 2725 3281 2906 2969 
z
M 947 1747 
Q 947 1113 1208 752 
Q 1469 391 1925 391 
Q 2381 391 2643 752 
Q 2906 1113 2906 1747 
Q 2906 2381 2643 2742 
Q 2381 3103 1925 3103 
Q 1469 3103 1208 2742 
Q 947 2381 947 1747 
z
" transform="scale(0.015625)"/>
     </defs>
     <use xlink:href="#DejaVuSans-53"/>
     <use xlink:href="#DejaVuSans-74" transform="translate(63.476562 0)"/>
     <use xlink:href="#DejaVuSans-72" transform="translate(102.685547 0)"/>
     <use xlink:href="#DejaVuSans-6f" transform="translate(141.548828 0)"/>
     <use xlink:href="#DejaVuSans-62" transform="translate(202.730469 0)"/>
     <use xlink:href="#DejaVuSans-6f" transform="translate(266.207031 0)"/>
     <use xlink:href="#DejaVuSans-73" transform="translate(327.388672 0)"/>
     <use xlink:href="#DejaVuSans-63" transform="translate(379.488281 0)"/>
     <use xlink:href="#DejaVuSans-6f" transform="translate(434.46875 0)"/>
     <use xlink:href="#DejaVuSans-70" transform="translate(495.650391 0)"/>
     <use xlink:href="#DejaVuSans-69" transform="translate(559.126953 0)"/>
     <use xlink:href="#DejaVuSans-63" transform="translate(586.910156 0)"/>
     <use xlink:href="#DejaVuSans-3a" transform="translate(641.890625 0)"/>
     <use xlink:href="#DejaVuSans-20" transform="translate(675.582031 0)"/>
     <use xlink:href="#DejaVuSans-46" transform="translate(707.369141 0)"/>
     <use xlink:href="#DejaVuSans-6f" transform="translate(761.263672 0)"/>
     <use xlink:href="#DejaVuSans-72" transform="translate(822.445312 0)"/>
     <use xlink:href="#DejaVuSans-77" transform="translate(863.558594 0)"/>
     <use xlink:href="#DejaVuSans-61" transform="translate(945.345703 0)"/>
     <use xlink:href="#DejaVuSans-72" transform="translate(1006.625 0)"/>
     <use xlink:href="#DejaVuSans-64" transform="translate(1045.988281 0)"/>
    </g>
   </g>
  </g>
 </g>
 <defs>
  <clipPath id="pcffe147590">
   <rect x="7.2" y="7.2" width="277.2" height="277.2"/>
  </clipPath>
 </defs>
</svg>
